<?xml version="1.0" encoding="UTF-8"?>
<svg id="Layer_1" data-name="Layer 1" xmlns="http://www.w3.org/2000/svg" viewBox="0 0 250 200">
  <defs>
    <style>
      .cls-1 {
        fill: #f1f2f2;
      }

      .cls-1, .cls-2 {
        stroke-width: 0px;
      }

      .cls-2 {
        fill: #e47d00;
      }
    </style>
  </defs>
  <g>
    <path class="cls-2" d="m85.67,88.49c-.55-.31-1.17-.53-1.87-.67-.7-.14-1.42-.21-2.16-.21-.82,0-1.69.03-2.63.09-.93.06-1.64.13-2.1.2l-2.11,8.88h5.73c2.33,0,4.08-.51,5.22-1.52,1.15-1.01,1.72-2.22,1.72-3.62,0-.74-.16-1.37-.5-1.9-.33-.53-.76-.95-1.31-1.26Z"/>
    <path class="cls-2" d="m83.98,105.08c-.47-.43-1.08-.78-1.84-1.05-.76-.27-1.67-.41-2.72-.41h-6.31l-2.51,10.51c.62.12,1.41.2,2.36.27.95.06,1.84.09,2.65.09,1.17,0,2.33-.09,3.48-.26,1.15-.18,2.18-.5,3.09-.96.91-.47,1.66-1.11,2.25-1.93.58-.82.87-1.87.87-3.16,0-.55-.1-1.09-.32-1.64-.21-.54-.56-1.03-1.02-1.46Z"/>
    <path class="cls-2" d="m66.48,56.9l-24.49,88.29h49.98l24.49-88.29h-49.98Zm28.69,38.04c-.53.92-1.25,1.78-2.16,2.6-.91.82-2.11,1.56-3.59,2.22,1.75.78,3.04,1.84,3.85,3.18.82,1.34,1.23,2.83,1.23,4.47,0,1.87-.36,3.67-1.11,5.4-.74,1.73-1.92,3.27-3.56,4.61-1.63,1.34-3.76,2.42-6.36,3.21-1.69.52-3.64.85-5.8,1.03l-2.02,7.27h-4.64l1.98-7.14c-1.22-.01-2.48-.09-3.74-.15l-2.02,7.29h-4.64l2.11-7.61c-1.63-.18-3.19-.41-4.59-.71l9.34-39.13c2.08-.4,4.26-.67,6.53-.84l2.02-7.29h4.64l-1.96,7.06c.83-.02,1.66-.04,2.43-.04.48,0,.89.06,1.34.08l1.97-7.09h4.64l-2.14,7.7c.07.02.16.02.23.04,1.69.49,3.08,1.14,4.15,1.96,1.07.82,1.87,1.78,2.39,2.89.53,1.11.79,2.29.79,3.53,0,.86-.09,1.75-.26,2.69-.18.93-.53,1.86-1.05,2.77Z"/>
  </g>
  <g>
    <path class="cls-1" d="m129.59,56.78c.14.65.33,1.57.56,2.75.23,1.19.47,2.5.72,3.92.25,1.43.51,2.89.77,4.39.26,1.5.5,2.87.72,4.12.82-1.25,1.7-2.59,2.66-4.03.96-1.44,1.91-2.86,2.84-4.25.94-1.39,1.82-2.69,2.66-3.91.84-1.21,1.56-2.21,2.16-3.01h4.97c-.17,1.66-.39,3.52-.67,5.58-.28,2.06-.59,4.2-.94,6.41s-.71,4.43-1.1,6.66c-.38,2.23-.77,4.33-1.15,6.3h-5.47c.5-2.45,1.04-5.09,1.6-7.94.56-2.84,1.08-5.72,1.57-8.62-.62.98-1.32,2.08-2.09,3.29-.77,1.21-1.54,2.44-2.3,3.67-.77,1.24-1.51,2.42-2.23,3.55s-1.34,2.09-1.87,2.88h-4.1c-.12-.72-.26-1.63-.43-2.74-.17-1.1-.35-2.27-.56-3.51s-.41-2.48-.63-3.74-.42-2.39-.61-3.4c-.94,2.9-1.78,5.78-2.54,8.62s-1.46,5.49-2.11,7.94h-5.44c.55-1.97,1.16-4.07,1.82-6.3.66-2.23,1.34-4.46,2.05-6.68.71-2.22,1.41-4.36,2.11-6.43.7-2.06,1.36-3.91,1.98-5.54h5.04Z"/>
    <path class="cls-1" d="m152.42,81.73h-5.33l4.5-18.94h5.36l-4.54,18.94Zm2.59-21.24c-.74,0-1.42-.22-2.02-.67-.6-.44-.9-1.12-.9-2.03,0-.5.1-.98.31-1.42.2-.44.47-.83.81-1.15.34-.32.73-.58,1.17-.77s.92-.29,1.42-.29c.74,0,1.42.22,2.02.67.6.44.9,1.12.9,2.03,0,.5-.1.98-.31,1.42-.2.44-.47.83-.81,1.15-.34.32-.73.58-1.17.77-.44.19-.92.29-1.42.29Z"/>
    <path class="cls-1" d="m153.64,88.39c-.67,0-1.34-.07-2-.2-.66-.13-1.25-.29-1.78-.49l1.37-4.25c.34.12.67.22.99.29s.69.11,1.1.11c.84,0,1.49-.25,1.94-.76.46-.5.78-1.24.97-2.2l4.36-18.11h5.36l-4.39,18.25c-.58,2.5-1.48,4.34-2.7,5.54-1.22,1.2-2.96,1.8-5.22,1.8Zm10.37-27.9c-.74,0-1.42-.22-2.02-.67-.6-.44-.9-1.12-.9-2.03,0-.5.1-.98.31-1.42.2-.44.47-.83.81-1.15.34-.32.73-.58,1.17-.77.44-.19.92-.29,1.42-.29.74,0,1.42.22,2.02.67s.9,1.12.9,2.03c0,.5-.1.98-.31,1.42-.2.44-.47.83-.81,1.15-.34.32-.73.58-1.17.77-.44.19-.92.29-1.42.29Z"/>
    <path class="cls-1" d="m168.76,63.66c.41-.12.86-.26,1.35-.41.49-.16,1.04-.3,1.66-.43.61-.13,1.3-.24,2.05-.32s1.61-.13,2.57-.13c2.83,0,4.78.82,5.83,2.45,1.06,1.63,1.24,3.86.54,6.7l-2.45,10.22h-5.36l2.38-10.01c.14-.62.26-1.23.34-1.82s.08-1.1-.02-1.55c-.1-.44-.32-.8-.67-1.08-.35-.28-.88-.41-1.6-.41s-1.4.07-2.12.22l-3.49,14.65h-5.36l4.36-18.07Z"/>
  </g>
  <g>
    <path class="cls-1" d="m108.51,113.42l5.98-24.95h16.31l-1.15,4.61h-10.69l-1.15,5.04h9.43l-1.12,4.54h-9.43l-1.44,6.12h11.52l-1.15,4.64h-17.1Z"/>
    <path class="cls-1" d="m129.13,106c0-1.54.27-3.02.81-4.46.54-1.44,1.3-2.72,2.29-3.83.98-1.12,2.18-2.02,3.58-2.7,1.4-.68,2.96-1.03,4.66-1.03.84,0,1.62.12,2.34.36.72.24,1.35.59,1.89,1.04.54.46.96,1.01,1.26,1.67.3.66.45,1.41.45,2.25,0,1.34-.3,2.48-.9,3.42-.6.94-1.43,1.7-2.5,2.29-1.07.59-2.33,1.01-3.8,1.28-1.46.26-3.06.4-4.79.4.17,1.01.53,1.72,1.1,2.14s1.46.63,2.68.63c.77,0,1.55-.07,2.34-.2.79-.13,1.54-.33,2.23-.59l.4,4.21c-.67.26-1.53.5-2.57.72-1.04.22-2.18.32-3.4.32-1.49,0-2.74-.21-3.76-.63-1.02-.42-1.85-.99-2.48-1.71-.64-.72-1.1-1.56-1.38-2.52-.29-.96-.43-1.98-.43-3.06Zm10.48-7.78c-1.22,0-2.3.44-3.22,1.31-.92.88-1.53,2.03-1.82,3.47,1.49-.05,2.69-.17,3.6-.38.91-.2,1.62-.45,2.12-.74.5-.29.84-.6,1.01-.94.17-.34.25-.67.25-1.01,0-1.15-.65-1.73-1.94-1.73Z"/>
    <path class="cls-1" d="m159.95,99.09c-.48-.12-.95-.23-1.42-.34-.47-.11-1.16-.16-2.07-.16-.34,0-.71.03-1.12.09-.41.06-.74.13-1.01.2l-3.49,14.54h-5.36l4.32-17.93c1.03-.34,2.19-.65,3.47-.95,1.28-.3,2.73-.45,4.34-.45.6,0,1.27.05,2,.16.73.11,1.37.28,1.93.52l-1.58,4.32Z"/>
    <path class="cls-1" d="m165.31,109.6c1.22,0,2.06-.17,2.52-.52.46-.35.68-.73.68-1.13,0-.26-.04-.49-.13-.68-.08-.19-.22-.37-.41-.54s-.46-.34-.79-.52-.77-.39-1.3-.63c-.6-.26-1.17-.55-1.69-.85s-.99-.66-1.39-1.08-.71-.9-.94-1.44c-.23-.54-.34-1.18-.34-1.93,0-1.94.71-3.48,2.14-4.61,1.43-1.13,3.51-1.69,6.25-1.69,1.3,0,2.45.14,3.46.43,1.01.29,1.82.6,2.45.94l-1.84,4c-.5-.26-1.15-.52-1.94-.76-.79-.24-1.57-.36-2.34-.36-.34,0-.67.02-.99.05-.32.04-.62.11-.9.23-.28.12-.5.29-.67.5-.17.22-.25.5-.25.86,0,.48.19.84.56,1.08.37.24.89.53,1.57.86.94.46,1.72.88,2.34,1.26.62.38,1.12.79,1.49,1.22.37.43.64.92.81,1.48.17.55.25,1.2.25,1.94s-.16,1.52-.49,2.27c-.32.74-.83,1.4-1.53,1.98-.7.58-1.58,1.04-2.66,1.4-1.08.36-2.38.54-3.89.54-.94,0-1.78-.06-2.54-.18-.76-.12-1.42-.27-2-.45-.58-.18-1.06-.37-1.46-.56s-.7-.35-.92-.47l1.84-4.1c.41.24,1.04.54,1.91.9.86.36,1.91.54,3.13.54Z"/>
    <path class="cls-1" d="m180.04,89.76l5.58-.86-1.37,5.58h5.98l-1.08,4.39h-5.94l-1.58,6.62c-.14.55-.23,1.07-.27,1.55-.04.48.02.89.18,1.24.16.35.43.62.81.81.38.19.91.29,1.58.29.58,0,1.13-.05,1.67-.16.54-.11,1.09-.26,1.64-.45l.4,4.1c-.72.26-1.5.49-2.34.68-.84.19-1.84.29-2.99.29-1.66,0-2.94-.25-3.85-.74-.91-.49-1.56-1.16-1.94-2.02-.38-.85-.55-1.83-.5-2.93.05-1.1.22-2.27.5-3.49l3.53-14.9Z"/>
    <path class="cls-1" d="m188.75,106c0-1.54.27-3.02.81-4.46.54-1.44,1.3-2.72,2.29-3.83.98-1.12,2.18-2.02,3.58-2.7,1.4-.68,2.96-1.03,4.66-1.03.84,0,1.62.12,2.34.36.72.24,1.35.59,1.89,1.04.54.46.96,1.01,1.26,1.67.3.66.45,1.41.45,2.25,0,1.34-.3,2.48-.9,3.42-.6.94-1.43,1.7-2.5,2.29s-2.33,1.01-3.8,1.28c-1.46.26-3.06.4-4.79.4.17,1.01.53,1.72,1.1,2.14.56.42,1.46.63,2.68.63.77,0,1.55-.07,2.34-.2.79-.13,1.54-.33,2.23-.59l.4,4.21c-.67.26-1.53.5-2.57.72-1.04.22-2.18.32-3.4.32-1.49,0-2.74-.21-3.76-.63-1.02-.42-1.85-.99-2.48-1.71s-1.1-1.56-1.39-2.52c-.29-.96-.43-1.98-.43-3.06Zm10.48-7.78c-1.22,0-2.3.44-3.22,1.31-.92.88-1.53,2.03-1.82,3.47,1.49-.05,2.69-.17,3.6-.38.91-.2,1.62-.45,2.12-.74.5-.29.84-.6,1.01-.94.17-.34.25-.67.25-1.01,0-1.15-.65-1.73-1.94-1.73Z"/>
  </g>
  <g>
    <path class="cls-1" d="m108.45,145.66c-1.44,0-2.92-.06-4.43-.18s-2.88-.31-4.1-.58l5.76-24.12c1.37-.26,2.8-.44,4.3-.54,1.5-.1,2.87-.14,4.12-.14,1.44,0,2.68.15,3.73.45,1.04.3,1.9.7,2.56,1.21.66.5,1.15,1.1,1.48,1.78s.49,1.41.49,2.18c0,.53-.05,1.08-.16,1.66s-.32,1.15-.65,1.71c-.32.56-.77,1.1-1.33,1.6-.56.5-1.3.96-2.21,1.37,1.08.48,1.87,1.13,2.38,1.96.5.83.76,1.75.76,2.75,0,1.15-.23,2.26-.68,3.33-.46,1.07-1.19,2.02-2.2,2.84-1.01.83-2.32,1.49-3.92,1.98-1.61.49-3.56.74-5.87.74Zm-.5-11.23l-1.55,6.48c.38.07.87.13,1.46.16.59.04,1.13.05,1.64.05.72,0,1.43-.05,2.14-.16.71-.11,1.34-.31,1.91-.59.56-.29,1.03-.68,1.39-1.19.36-.5.54-1.15.54-1.95,0-.34-.07-.67-.2-1.01-.13-.34-.34-.63-.63-.9s-.67-.48-1.13-.65c-.47-.17-1.03-.25-1.67-.25h-3.89Zm1.04-4.21h3.53c1.44,0,2.51-.31,3.22-.94s1.06-1.37,1.06-2.23c0-.46-.1-.85-.31-1.17s-.47-.58-.81-.77c-.34-.19-.72-.33-1.15-.41-.43-.08-.88-.13-1.33-.13-.5,0-1.04.02-1.62.05-.58.04-1.01.08-1.3.13l-1.3,5.47Z"/>
    <path class="cls-1" d="m127.75,145.34h-5.33l4.5-18.94h5.36l-4.54,18.94Zm2.59-21.24c-.74,0-1.42-.22-2.02-.67-.6-.44-.9-1.12-.9-2.04,0-.5.1-.98.31-1.42.2-.44.47-.83.81-1.15.33-.32.73-.58,1.17-.77.44-.19.92-.29,1.42-.29.74,0,1.42.22,2.02.67s.9,1.12.9,2.03c0,.5-.1.98-.31,1.42-.2.44-.47.83-.81,1.15s-.73.58-1.17.77c-.44.19-.92.29-1.42.29Z"/>
    <path class="cls-1" d="m136.75,121.69l5.58-.87-1.37,5.58h5.98l-1.08,4.39h-5.94l-1.58,6.62c-.14.55-.23,1.07-.27,1.55s.02.89.18,1.24.43.62.81.81.91.29,1.58.29c.58,0,1.13-.05,1.67-.16.54-.11,1.08-.26,1.64-.45l.4,4.1c-.72.26-1.5.49-2.34.68-.84.19-1.84.29-2.99.29-1.66,0-2.94-.25-3.85-.74-.91-.49-1.56-1.16-1.94-2.02-.38-.85-.55-1.83-.5-2.93.05-1.1.22-2.27.5-3.49l3.53-14.9Z"/>
    <path class="cls-1" d="m146.11,137.78c0-1.63.26-3.17.79-4.61.53-1.44,1.28-2.7,2.27-3.78.98-1.08,2.18-1.93,3.58-2.56,1.4-.62,2.97-.94,4.7-.94,1.08,0,2.05.1,2.9.31.85.2,1.63.47,2.32.81l-1.84,4.18c-.48-.19-.98-.37-1.49-.52-.52-.16-1.15-.23-1.89-.23-1.8,0-3.22.61-4.25,1.82s-1.55,2.86-1.55,4.95c0,1.22.26,2.21.79,2.97s1.5,1.13,2.92,1.13c.7,0,1.37-.07,2.02-.22.65-.14,1.22-.32,1.73-.54l.4,4.28c-.67.26-1.41.5-2.21.7-.8.2-1.78.31-2.93.31-1.49,0-2.75-.22-3.78-.65-1.03-.43-1.88-1.01-2.56-1.75s-1.16-1.59-1.46-2.57c-.3-.98-.45-2.02-.45-3.1Z"/>
    <path class="cls-1" d="m168.97,145.84c-1.27,0-2.38-.19-3.31-.58-.94-.38-1.71-.92-2.32-1.62-.61-.7-1.08-1.52-1.39-2.47s-.47-2-.47-3.15c0-1.44.23-2.88.7-4.32s1.16-2.74,2.07-3.89c.91-1.15,2.03-2.09,3.35-2.83,1.32-.73,2.83-1.1,4.54-1.1,1.25,0,2.35.19,3.29.58.95.38,1.73.92,2.34,1.62s1.07,1.52,1.39,2.47c.31.95.47,2,.47,3.15,0,1.44-.23,2.88-.68,4.32-.46,1.44-1.13,2.74-2.02,3.89-.89,1.15-2,2.09-3.33,2.83-1.33.73-2.87,1.1-4.63,1.1Zm2.66-15.41c-.79,0-1.49.23-2.09.68-.6.46-1.1,1.03-1.51,1.73s-.71,1.46-.92,2.29-.31,1.61-.31,2.36c0,1.22.19,2.17.58,2.83.38.66,1.08.99,2.09.99.79,0,1.49-.23,2.09-.68.6-.46,1.1-1.03,1.51-1.73.41-.7.71-1.46.92-2.29s.31-1.61.31-2.36c0-1.22-.19-2.17-.58-2.83-.38-.66-1.08-.99-2.09-.99Z"/>
    <path class="cls-1" d="m185.38,145.34h-5.33l4.5-18.94h5.36l-4.54,18.94Zm2.59-21.24c-.74,0-1.42-.22-2.02-.67-.6-.44-.9-1.12-.9-2.04,0-.5.1-.98.31-1.42.2-.44.47-.83.81-1.15.33-.32.73-.58,1.17-.77.44-.19.92-.29,1.42-.29.74,0,1.42.22,2.02.67s.9,1.12.9,2.03c0,.5-.1.98-.31,1.42-.2.44-.47.83-.81,1.15s-.73.58-1.17.77c-.44.19-.92.29-1.42.29Z"/>
    <path class="cls-1" d="m193.59,127.27c.41-.12.86-.26,1.35-.41s1.04-.3,1.66-.43,1.3-.24,2.05-.32c.76-.08,1.61-.13,2.57-.13,2.83,0,4.78.82,5.83,2.45,1.06,1.63,1.24,3.86.54,6.7l-2.45,10.22h-5.36l2.38-10.01c.14-.62.26-1.23.34-1.82.08-.59.08-1.1-.02-1.55-.1-.44-.32-.8-.67-1.08-.35-.28-.88-.41-1.6-.41s-1.4.07-2.12.22l-3.49,14.65h-5.36l4.36-18.07Z"/>
  </g>
</svg>